<?xml version="1.0" encoding="UTF-8" standalone="no"?>
<!-- Created with Inkscape (http://www.inkscape.org/) -->

<svg
   xmlns:dc="http://purl.org/dc/elements/1.1/"
   xmlns:cc="http://creativecommons.org/ns#"
   xmlns:rdf="http://www.w3.org/1999/02/22-rdf-syntax-ns#"
   xmlns:svg="http://www.w3.org/2000/svg"
   xmlns="http://www.w3.org/2000/svg"
   xmlns:sodipodi="http://sodipodi.sourceforge.net/DTD/sodipodi-0.dtd"
   xmlns:inkscape="http://www.inkscape.org/namespaces/inkscape"
   width="1000"
   height="1000"
   viewBox="0 0 264.58333 264.58334"
   version="1.1"
   id="svg830"
   inkscape:version="0.92.2 2405546, 2018-03-11"
   sodipodi:docname="Instagram icon.svg">
  <defs
     id="defs824" />
  <sodipodi:namedview
     id="base"
     pagecolor="#ffffff"
     bordercolor="#666666"
     borderopacity="1.0"
     inkscape:pageopacity="0.0"
     inkscape:pageshadow="2"
     inkscape:zoom="0.245"
     inkscape:cx="-134.69388"
     inkscape:cy="500"
     inkscape:document-units="mm"
     inkscape:current-layer="layer1"
     showgrid="false"
     units="px"
     inkscape:window-width="1918"
     inkscape:window-height="526"
     inkscape:window-x="0"
     inkscape:window-y="1296"
     inkscape:window-maximized="0" />
  <metadata
     id="metadata827">
    <rdf:RDF>
      <cc:Work
         rdf:about="">
        <dc:format>image/svg+xml</dc:format>
        <dc:type
           rdf:resource="http://purl.org/dc/dcmitype/StillImage" />
        <dc:title></dc:title>
      </cc:Work>
    </rdf:RDF>
  </metadata>
  <g
     inkscape:label="Layer 1"
     inkscape:groupmode="layer"
     id="layer1"
     transform="translate(0,-32.416658)">
    <path
       style="opacity:1;fill:#000000;fill-opacity:1;stroke:none;stroke-width:31.50878906;stroke-miterlimit:4;stroke-dasharray:none;stroke-dashoffset:0;paint-order:stroke fill markers"
       d="M 500 18.367188 A 481.6326 481.6326 0 0 0 18.367188 500 A 481.6326 481.6326 0 0 0 500 981.63281 A 481.6326 481.6326 0 0 0 981.63281 500 A 481.6326 481.6326 0 0 0 500 18.367188 z M 500 157.38867 C 584.2067 157.38867 594.72009 157.68993 627.7832 159.24219 C 660.76824 160.76613 683.26579 165.98283 703.02539 173.65625 C 723.45759 181.53373 740.71232 192.17517 757.94141 209.4043 C 775.14415 226.6334 785.78365 243.94081 793.69141 264.32031 C 801.33947 284.05549 806.55126 306.57942 808.10352 339.56445 C 809.57768 372.62761 809.96875 383.14095 809.96875 467.34766 C 809.96875 551.55436 809.65577 562.06673 808.10352 595.12891 C 806.57957 628.11492 801.33554 650.61345 793.69141 670.37305 C 785.81294 690.80525 775.14415 708.05997 757.94141 725.28906 C 740.71232 742.49181 723.37951 753.12936 703.02539 761.03711 C 683.26579 768.68517 660.76824 773.89892 627.7832 775.45117 C 594.72009 776.91555 584.2067 777.30664 500 777.30664 C 415.79231 777.30664 405.27998 777.00342 372.2168 775.45117 C 339.23176 773.92723 316.7586 768.68124 296.97266 761.03711 C 276.56678 753.15865 259.28673 742.49181 242.05859 725.28906 C 224.82948 708.05997 214.21633 690.72815 206.30859 670.37305 C 198.63223 650.61345 193.44874 628.11492 191.89648 595.12891 C 190.42233 562.06673 190.03125 551.55436 190.03125 467.34766 C 190.03125 383.14095 190.34422 372.62761 191.89648 339.56445 C 193.42043 306.55402 198.63516 284.08085 206.30859 264.32031 C 214.18705 243.91443 224.82948 226.6334 242.05859 209.4043 C 259.28673 192.17517 276.59314 181.564 296.97266 173.65625 C 316.73322 165.98868 339.20638 160.79445 372.2168 159.24219 C 405.27998 157.77779 415.79231 157.38867 500 157.38867 z M 498.83398 212.40234 C 415.94426 212.40234 406.25754 212.79137 373.32422 213.95312 C 343.10297 215.50443 326.8043 220.54232 315.95508 224.82812 C 301.25742 230.22688 291.15685 237.20057 280.33398 248.02344 C 269.45938 258.89803 262.51592 268.97228 257.08789 283.69531 C 252.82845 294.54456 247.81007 311.17914 246.23828 341.40039 C 245.057 374.33466 244.66602 384.40706 244.66602 466.96094 C 244.66602 549.48942 245.07653 559.53825 246.23828 592.08398 C 247.81299 622.30618 252.82162 638.96521 257.08789 649.81445 C 262.51202 664.17628 269.45938 674.63807 280.33398 685.46094 C 291.15685 696.31018 301.25742 702.89239 315.95508 708.68164 C 326.8043 712.94691 343.46335 717.98489 373.71094 719.55664 C 406.59251 721.07964 416.27927 721.46875 499.2207 721.46875 C 582.13583 721.46875 591.82254 721.13823 624.73047 719.66406 C 654.95168 718.29047 671.61267 713.23306 682.46094 708.99609 C 696.82276 703.39136 707.28459 696.67443 718.10742 685.85156 C 728.95569 674.95159 735.53887 664.67135 741.32812 650.1543 C 745.5934 639.25429 750.63137 622.85306 752.20312 592.63086 C 753.72612 559.95529 754.11719 550.11436 754.11719 467.35352 C 754.11719 384.59365 753.78471 374.77812 752.31055 342.07617 C 750.93597 311.85496 745.87958 295.45274 741.64258 284.55273 C 736.03784 270.03568 729.32091 259.72911 718.49805 248.88086 C 707.5971 238.05799 697.31783 231.34008 682.80078 225.73633 C 671.90077 221.45048 655.49856 216.43316 625.27734 215.01758 C 592.60178 213.5727 582.7345 213.18164 500 213.18164 L 498.83398 212.40234 z M 665.46875 264.73828 C 685.95175 264.71182 702.66406 281.39882 702.66406 301.9082 C 702.66406 322.44389 685.97813 339.10352 665.46875 339.10352 C 644.93303 339.10352 628.27344 322.41754 628.27344 301.9082 C 628.27344 281.39882 644.95941 264.73828 665.46875 264.73828 z M 500 308.18555 C 587.87451 308.18555 659.16602 379.39897 659.16602 467.35156 C 659.16602 555.22607 587.95165 626.51758 500 626.51758 C 412.12451 626.51758 340.83203 555.30321 340.83203 467.35156 C 340.83203 379.47706 412.04737 308.18555 500 308.18555 z M 500 364.03125 C 442.91492 364.03125 396.67773 410.26649 396.67773 467.35156 C 396.67773 524.43668 442.91492 570.67188 500 570.67188 C 557.08508 570.67188 603.32031 524.43668 603.32031 467.35156 C 603.32031 410.26649 557.08508 364.03125 500 364.03125 z "
       transform="matrix(0.26458333,0,0,0.26458333,0,32.416658)"
       id="path1559" />
  </g>
</svg>
