<?xml version="1.0" encoding="UTF-8" standalone="no"?>
<!-- Created with Inkscape (http://www.inkscape.org/) -->

<svg
   xmlns:dc="http://purl.org/dc/elements/1.1/"
   xmlns:cc="http://creativecommons.org/ns#"
   xmlns:rdf="http://www.w3.org/1999/02/22-rdf-syntax-ns#"
   xmlns:svg="http://www.w3.org/2000/svg"
   xmlns="http://www.w3.org/2000/svg"
   xmlns:sodipodi="http://sodipodi.sourceforge.net/DTD/sodipodi-0.dtd"
   xmlns:inkscape="http://www.inkscape.org/namespaces/inkscape"
   width="1000"
   height="1000"
   viewBox="0 0 264.58333 264.58334"
   version="1.1"
   id="svg830"
   inkscape:version="0.92.2 2405546, 2018-03-11"
   sodipodi:docname="youtube-icon.svg">
  <defs
     id="defs824">















	
</defs>
  <sodipodi:namedview
     id="base"
     pagecolor="#ffffff"
     bordercolor="#666666"
     borderopacity="1.0"
     inkscape:pageopacity="0.0"
     inkscape:pageshadow="2"
     inkscape:zoom="0.245"
     inkscape:cx="-134.69388"
     inkscape:cy="500"
     inkscape:document-units="mm"
     inkscape:current-layer="layer1"
     showgrid="false"
     units="px"
     inkscape:window-width="1918"
     inkscape:window-height="526"
     inkscape:window-x="0"
     inkscape:window-y="1296"
     inkscape:window-maximized="0" />
  <metadata
     id="metadata827">
    <rdf:RDF>
      <cc:Work
         rdf:about="">
        <dc:format>image/svg+xml</dc:format>
        <dc:type
           rdf:resource="http://purl.org/dc/dcmitype/StillImage" />
        <dc:title></dc:title>
      </cc:Work>
    </rdf:RDF>
  </metadata>
  <g
     inkscape:label="Layer 1"
     inkscape:groupmode="layer"
     id="layer1"
     transform="translate(0,-32.416658)">
    <path
       style="opacity:1;fill:#000000;fill-opacity:1;stroke:none;stroke-width:31.50878906;stroke-miterlimit:4;stroke-dasharray:none;stroke-dashoffset:0;paint-order:stroke fill markers"
       d="M 500 18.367188 A 481.6326 481.6326 0 0 0 18.367188 500 A 481.6326 481.6326 0 0 0 500 981.63281 A 481.6326 481.6326 0 0 0 981.63281 500 A 481.6326 481.6326 0 0 0 500 18.367188 z M 499.94727 217.53125 C 581.95868 217.52725 663.98683 219.25404 714.82227 222.72461 C 824.87153 230.25745 837.67239 296.9455 838.52539 471.42773 C 837.70758 646.22026 824.75852 712.6266 714.82227 720.13281 C 613.15139 727.07395 386.73555 727.04198 285.17773 720.13281 C 175.12848 712.59995 162.32759 645.90996 161.47461 471.42773 C 162.2924 296.63521 175.2415 230.2308 285.17773 222.72461 C 335.94226 219.27003 417.93585 217.53525 499.94727 217.53125 z M 415.36914 358.58594 L 415.36914 584.26953 L 641.05273 471.23047 L 415.36914 358.58594 z "
       transform="matrix(0.26458333,0,0,0.26458333,0,32.416658)"
       id="path1559" />
  </g>
</svg>
